<svg width="177" height="38" viewBox="0 0 177 38" fill="none" xmlns="http://www.w3.org/2000/svg">
<g clip-path="url(#clip0_1804_10141)">
<path d="M0.693359 19.4634C0.693359 10.478 7.13238 6 13.1617 6C17.8153 6 20.8007 8.54634 21.4446 9.98049H21.5909V6.49756H28.2641V32.4585H21.6202V28.9756H21.4738C20.8299 30.4098 17.8446 32.9561 13.1909 32.9561C7.13238 32.9268 0.693359 28.4488 0.693359 19.4634ZM21.7665 19.4634C21.8232 18.5388 21.6969 17.6122 21.395 16.7364C21.0931 15.8607 20.6215 15.0531 20.0071 14.3599C19.3927 13.6666 18.6476 13.1014 17.8145 12.6964C16.9814 12.2915 16.0766 12.0548 15.1519 12C14.9375 11.9853 14.7224 11.9853 14.508 12C12.6313 11.9598 10.8149 12.6635 9.45503 13.9576C8.09521 15.2516 7.30235 17.0309 7.24946 18.9073V19.4634C7.19413 20.3924 7.32318 21.3231 7.62917 22.202C7.93516 23.0809 8.41204 23.8906 9.03234 24.5843C9.65264 25.2781 10.4041 25.8422 11.2434 26.2443C12.0827 26.6463 12.9933 26.8783 13.9226 26.9268H14.4787C16.3493 26.9804 18.1645 26.2891 19.5256 25.0049C20.8867 23.7206 21.6822 21.9485 21.7373 20.078C21.7616 19.8741 21.7714 19.6687 21.7665 19.4634ZM30.9275 25.639L36.2543 24.2049C36.4685 25.1857 37.0124 26.0635 37.7953 26.692C38.5782 27.3204 39.5528 27.6616 40.5568 27.6585C42.2543 27.6585 43.8934 26.8098 43.8934 24.9658C43.8934 23.7073 43.1031 22.8293 41.0543 22.039L37.8641 20.839C33.5616 19.2878 31.7763 16.5366 31.7763 13.4049C31.7177 8.78048 35.8153 6 40.6738 6C45.3568 6 48.8104 8.63415 49.6592 12.6439L44.4495 13.9902C44.2799 13.2034 43.8433 12.4996 43.2138 11.9981C42.5843 11.4966 41.8006 11.2284 40.9958 11.239C39.2397 11.239 38.2153 12.2049 38.2153 13.4927C38.2153 14.6049 38.8592 15.5415 40.908 16.2439L43.8348 17.3561C47.0251 18.4976 50.508 20.4 50.508 24.9951C50.508 30.1756 46.0592 32.9854 40.6446 32.9854C35.4934 32.9268 31.6885 30.439 30.9275 25.639ZM53.2885 6.49756H59.9909V32.4585H53.2885V6.49756ZM62.8299 19.4634C62.8299 10.478 69.269 6 75.2982 6C79.9519 6 82.9373 8.54634 83.6104 9.98049H83.7568V6.49756H90.4299V32.4585H83.7275V28.9756H83.6104C82.9665 30.4098 79.9812 32.9561 75.3275 32.9561C69.269 32.9268 62.8299 28.4488 62.8299 19.4634ZM83.9031 19.4634C83.905 18.5121 83.7196 17.5698 83.3573 16.6902C82.995 15.8106 82.4631 15.0109 81.7918 14.3369C81.1205 13.6629 80.323 13.1277 79.4448 12.7619C78.5667 12.3961 77.6251 12.2068 76.6738 12.2049C74.7526 12.201 72.9086 12.9605 71.5473 14.3162C70.1861 15.672 69.4192 17.5129 69.4153 19.4341C69.4114 21.3553 70.1709 23.1994 71.5267 24.5606C72.8824 25.9219 74.7234 26.6888 76.6446 26.6927C78.5658 26.6966 80.4098 25.9371 81.7711 24.5813C83.1323 23.2256 83.8992 21.3846 83.9031 19.4634Z" fill="#9CA2AE"/>
<path d="M106.762 6.01328C109.425 6.01328 112.028 6.8029 114.242 8.28227C116.456 9.76165 118.182 11.8644 119.201 14.3245C120.22 16.7846 120.486 19.4916 119.967 22.1033C119.447 24.7149 118.165 27.1139 116.282 28.9968C114.399 30.8797 112 32.1619 109.389 32.6814C106.777 33.2009 104.07 32.9343 101.61 31.9153C99.1499 30.8962 97.0472 29.1706 95.5678 26.9566C94.0884 24.7425 93.2988 22.1395 93.2988 19.4767C93.2988 15.906 94.7173 12.4815 97.2422 9.95662C99.7671 7.43174 103.192 6.01328 106.762 6.01328ZM147.533 17.1938V32.4718H140.86V18.306C140.86 14.5011 138.811 12.0133 135.328 12.0133C131.845 12.0133 129.796 14.5011 129.796 18.306V32.4718H123.094V6.51084H129.767V10.0523C130.616 8.73977 131.797 7.67493 133.19 6.96563C134.582 6.25633 136.138 5.92778 137.699 6.01328C143.026 6.01328 147.533 9.29133 147.533 17.1938ZM176.128 22.0816H156.694C157.66 25.623 160.733 27.4669 164.626 27.4669C167.065 27.548 169.445 26.7127 171.299 25.1255L174.313 28.3743C173.021 29.8736 171.408 31.0645 169.595 31.8596C167.782 32.6548 165.814 33.034 163.835 32.9694C156.694 32.9694 150.313 28.0816 150.313 19.506C150.313 10.9304 156.811 6.04255 163.455 6.04255C170.099 6.04255 177.562 10.6377 176.128 22.0816ZM156.606 17.1938H170.187C169.777 13.4767 166.674 11.6621 163.543 11.6621C161.918 11.6092 160.327 12.137 159.056 13.1507C157.785 14.1644 156.916 15.5978 156.606 17.1938Z" fill="#9CA2AE"/>
</g>
<defs>
<clipPath id="clip0_1804_10141">
<rect width="176" height="38" fill="white" transform="translate(0.5)"/>
</clipPath>
</defs>
</svg>
