<svg width="161" height="30" viewBox="0 0 161 30" fill="none" xmlns="http://www.w3.org/2000/svg">
<path d="M0.5 0H12.23C14.4643 0 16.14 0.568391 17.3813 1.51571C18.7467 2.65249 19.4915 4.29451 19.4915 6.31546C19.4915 8.65217 18.5605 10.1047 16.6986 10.9889V11.1152C19.1812 11.9362 20.6086 14.2098 20.6086 16.9254C20.6086 19.5148 19.6156 21.5357 18.002 22.7988C16.6366 23.8093 14.8988 24.2514 12.5403 24.2514H0.5V0ZM11.0508 9.47318C12.2921 9.47318 13.2231 8.77848 13.2231 7.32593C13.2231 5.93653 12.2921 5.24183 10.9888 5.24183H6.95462V9.41003H11.0508V9.47318ZM11.6094 18.8832C13.0369 18.8832 14.0919 17.999 14.0919 16.4202C14.0919 14.715 12.9748 13.9572 11.6094 13.9572H7.01669V18.9464H11.6094V18.8832Z" fill="#9CA2AE"/>
<path d="M21.6641 0H27.8084V24.3145H21.6641V0Z" fill="#9CA2AE"/>
<path d="M29.0488 15.6623C29.0488 10.1678 32.5244 6.50488 37.9239 6.50488C43.3235 6.50488 46.737 10.231 46.737 15.6623C46.737 21.1567 43.3235 24.8197 37.9239 24.8197C32.5244 24.8197 29.0488 21.1567 29.0488 15.6623ZM40.5927 15.6623C40.5927 12.6309 39.6617 10.7362 37.7998 10.7362C35.9379 10.7362 35.069 12.6309 35.069 15.6623C35.069 18.6937 35.9379 20.6515 37.7998 20.6515C39.6617 20.5883 40.5927 18.6937 40.5927 15.6623Z" fill="#9CA2AE"/>
<path d="M47.4199 15.6623C47.4199 10.1678 50.8955 6.50488 56.295 6.50488C61.6946 6.50488 65.046 10.1678 65.046 15.6623C65.046 21.1567 61.6325 24.8197 56.233 24.8197C50.8955 24.8197 47.4199 21.1567 47.4199 15.6623ZM58.9638 15.6623C58.9638 12.6309 58.0328 10.7362 56.1709 10.7362C54.309 10.7362 53.4401 12.6309 53.4401 15.6623C53.4401 18.6937 54.309 20.6515 56.1709 20.6515C58.0328 20.5883 58.9638 18.6937 58.9638 15.6623Z" fill="#9CA2AE"/>
<path d="M66.2871 6.94664H71.997V9.53598H72.1211C73.2382 7.51503 74.7898 6.44141 77.2724 6.44141C79.4446 6.44141 81.0583 7.51503 81.8651 9.40967H81.9892C83.3547 7.13611 85.1545 6.44141 87.2647 6.44141C91.2368 6.44141 92.9125 9.40967 92.9125 13.3884V24.251H86.9544V14.462C86.9544 12.6937 86.3958 11.5569 84.9062 11.5569C83.4167 11.5569 82.6719 12.9463 82.6719 14.841V24.251H76.7138V14.462C76.7138 12.6937 76.1553 11.5569 74.6657 11.5569C73.1762 11.5569 72.4314 12.9463 72.4314 14.841V24.251H66.2871V6.94664Z" fill="#9CA2AE"/>
<path d="M100.422 21.9778H100.36V24.2514H94.6504V0H100.608V8.71534H100.733C101.85 7.19963 103.401 6.37862 105.574 6.37862C109.856 6.37862 112.338 10.2942 112.338 15.536C112.338 21.4094 109.67 24.8198 105.201 24.8198C103.339 24.8198 101.415 23.9356 100.422 21.9778ZM106.194 15.4729C106.194 12.6941 105.201 10.8626 103.401 10.8626C101.539 10.8626 100.422 12.6941 100.422 15.4729C100.422 18.2517 101.601 20.0832 103.401 20.0832C105.201 20.0832 106.194 18.3148 106.194 15.4729Z" fill="#9CA2AE"/>
<path d="M113.021 15.5988C113.021 10.1675 116.559 6.44141 121.648 6.44141C124.193 6.44141 126.117 7.26242 127.606 8.71497C129.592 10.6728 130.461 13.7042 130.399 17.2409H118.98C119.228 19.3881 120.221 20.5249 122.021 20.5249C123.076 20.5249 124.007 20.0197 124.379 18.8829H130.151C129.158 22.8616 126.117 24.8194 121.835 24.8194C116.559 24.7563 113.021 21.0933 113.021 15.5988ZM118.98 13.7673H124.441C124.317 11.6832 123.2 10.6096 121.772 10.6096C120.097 10.5465 119.166 11.7464 118.98 13.7673Z" fill="#9CA2AE"/>
<path d="M137.165 9.91458H137.289C138.53 7.5147 140.144 6.56738 142.192 6.56738C142.689 6.56738 142.999 6.63054 143.185 6.75685V12.0618H143.061C139.523 11.4303 137.475 13.1355 137.475 17.051V24.3138H131.455V6.94631H137.165V9.91458Z" fill="#9CA2AE"/>
<path d="M143.806 24.3148H149.578C149.827 25.0727 150.571 25.7674 151.999 25.7674C153.923 25.7674 154.605 24.5675 154.605 22.736V21.4729H154.481C153.55 22.6097 152.247 23.4307 150.385 23.4307C146.723 23.4307 143.496 20.6519 143.496 15.2206C143.496 10.2313 146.103 6.37891 150.075 6.37891C152.371 6.37891 153.737 7.32623 154.667 8.77878H154.792V6.88414H160.501V21.915C160.501 24.6938 159.57 26.841 158.143 28.1041C156.654 29.4304 154.543 29.9988 152.123 29.9988C147.53 30.0619 144.365 28.1673 143.806 24.3148ZM154.854 14.9679C154.854 12.8207 153.861 11.0524 152.123 11.0524C150.447 11.0524 149.392 12.5681 149.392 14.9679C149.392 17.3047 150.447 18.9467 152.123 18.9467C153.799 18.9467 154.854 17.2415 154.854 14.9679Z" fill="#9CA2AE"/>
</svg>
