<svg width="107" height="29" viewBox="0 0 107 29" fill="none" xmlns="http://www.w3.org/2000/svg">
<path d="M51.825 8.2832C50.9379 8.2832 50.4514 8.36823 49.736 8.70834C48.4197 9.30354 47.4467 10.2672 46.5882 11.826L46.3021 12.3079L46.3307 11.4292C46.3593 10.9474 46.3879 10.0688 46.4165 9.44525L46.4451 8.33989H46.2448C46.0159 8.33989 38.4612 9.84205 38.2322 9.92708C38.0892 9.98376 38.0605 10.0404 38.0605 10.4089C38.0605 10.7774 38.0892 10.834 38.2322 10.8624C38.3181 10.8907 38.6615 10.9474 39.0049 11.0041C39.6631 11.1175 39.8634 11.2308 40.1495 11.5993C40.6646 12.2512 40.7505 13.4416 40.7505 18.4015C40.7505 22.4545 40.6646 24.4952 40.4643 25.1187C40.2354 25.884 39.8061 26.2808 39.0621 26.4225C38.8332 26.4792 38.5184 26.5359 38.3753 26.5642L38.1178 26.6209L38.0892 27.1311C38.0605 27.4995 38.0892 27.6696 38.175 27.7263C38.2322 27.7546 40.8077 27.783 43.8983 27.783L49.5357 27.7546L49.5643 27.1594C49.5643 26.8476 49.5643 26.5642 49.5357 26.5642C49.1065 26.5642 47.7615 26.3942 47.5326 26.2808C46.903 26.0257 46.5882 25.4589 46.4451 24.2968C46.3021 22.9647 46.1876 19.5919 46.2448 16.871C46.3021 14.0935 46.3021 14.0934 46.4738 13.8951C46.8744 13.4699 47.9046 13.1298 48.8489 13.1298C49.5929 13.1298 50.3656 13.3282 51.1668 13.6967C51.5675 13.8951 51.9109 14.0084 51.9681 14.0084C52.0826 13.9801 53.914 9.13349 53.914 8.90675C53.914 8.62332 52.8552 8.2832 51.825 8.2832Z" fill="#9CA2AE"/>
<path d="M38.0882 16.7011C37.6875 13.3566 36.2567 10.9191 33.8816 9.53036C31.2489 7.99986 27.2712 7.91483 24.4382 9.33196C22.3778 10.3523 20.718 12.3079 19.974 14.5754C19.2014 16.8994 19.2014 19.9605 19.974 22.3129C20.4605 23.8434 21.1187 24.9488 22.1489 25.9408C23.3794 27.1595 24.9819 27.9247 26.8419 28.1798C27.5001 28.2649 29.5891 28.2649 30.2759 28.1798C30.5907 28.1231 31.163 28.0098 31.5064 27.9247C34.8545 26.9611 37.1438 24.4102 37.9165 20.7824C38.1168 19.8754 38.2026 17.7214 38.0882 16.7011ZM29.6177 26.7343C27.5287 27.3579 26.0407 25.3739 25.4684 21.2642C25.268 19.9321 25.2967 16.3043 25.4684 14.8021C25.869 11.486 26.8992 9.81379 28.5303 9.81379C29.2743 9.81379 29.675 9.98384 30.2473 10.5507C31.6209 11.9111 32.2504 14.5187 32.2504 18.6C32.2504 21.8594 31.907 23.9001 31.1916 25.2889C30.8196 25.9408 30.1614 26.5643 29.6177 26.7343Z" fill="#9CA2AE"/>
<path d="M10.6159 3.37959H13.0197C15.7669 3.37959 16.2247 3.43627 17.1977 3.91809C18.5999 4.59832 19.6301 5.95877 20.5458 8.33955C20.9178 9.3032 20.9178 9.3032 21.7191 9.04812L22.2628 8.87806L22.2056 5.39191C22.1769 3.46461 22.1197 1.76405 22.1197 1.62234L22.0625 1.31057L11.5603 1.28223C5.77976 1.28223 0.943598 1.28223 0.800516 1.31057L0.542969 1.36726L0.571585 1.99079L0.600201 2.61433L1.40146 2.69936C2.43165 2.81273 3.06121 3.1245 3.43322 3.63467C4.2631 4.82506 4.40618 6.46893 4.40618 14.2065C4.40618 22.4542 4.23448 24.4665 3.43322 25.4869C3.03259 26.0254 2.68919 26.1954 1.74486 26.3655C0.514351 26.5922 0.571585 26.5639 0.571585 27.1874C0.571585 27.5275 0.600202 27.7259 0.657435 27.7543C0.800516 27.811 14.2216 27.811 14.3647 27.7543C14.5364 27.6976 14.5364 26.7056 14.3647 26.6206C14.2788 26.5922 13.8496 26.5072 13.3631 26.4222C12.8766 26.3371 12.3615 26.2238 12.1898 26.1671C11.3027 25.7986 10.8162 24.7499 10.6445 22.851C10.5015 21.4905 10.4156 18.968 10.4156 17.1258V15.4252L11.2455 15.4536C12.9911 15.5102 13.8782 15.5953 14.2502 15.7653C15.0515 16.1054 15.681 17.0691 15.9958 18.4295L16.1675 19.1381L16.7971 19.1664L17.4266 19.1948V10.1251L16.7971 10.1535L16.1675 10.1818L15.9958 10.8904C15.6524 12.2792 15.0801 13.1295 14.2216 13.5263C13.8782 13.6963 13.6206 13.7247 12.8194 13.7813C12.2757 13.8097 11.503 13.838 11.131 13.838H10.4156V11.599C10.4156 9.35989 10.5301 4.56997 10.6159 3.83307V3.37959Z" fill="#9CA2AE"/>
<path d="M105.937 19.3656C105.308 18.0901 104.106 17.2399 101.645 16.2195C99.6418 15.3976 98.6117 14.8024 98.0107 14.1505C97.4956 13.612 97.3525 13.1585 97.4098 12.3649C97.467 11.628 97.6387 11.1745 98.1252 10.6644C98.7261 10.0125 99.5846 9.78573 100.586 10.0125C102.217 10.3526 103.276 11.4863 104.192 13.8671C104.507 14.7174 104.564 14.7457 105.136 14.519L105.508 14.3772V13.3852C105.508 12.8467 105.48 11.713 105.451 10.8628L105.394 9.33225L105.108 9.21888C103.591 8.59534 100.729 8.19854 98.8692 8.3686C96.7516 8.567 95.1777 9.21888 93.9758 10.466C92.7739 11.6847 92.2302 13.1302 92.3447 14.8307C92.4305 16.2479 92.8311 17.2399 93.7183 18.1468C94.5195 18.9688 95.2063 19.3656 97.1808 20.1308C100.329 21.3495 101.187 22.0864 101.159 23.5886C101.159 24.864 100.472 25.7993 99.2412 26.2245C98.7834 26.3662 97.6673 26.3662 97.0664 26.2245C95.4925 25.8277 94.2906 24.4672 93.2604 21.9731L93.0028 21.3212L92.6881 21.3495C92.5164 21.3495 92.2874 21.4062 92.173 21.4629L91.9727 21.5763L92.0013 22.6816C92.0013 23.2768 92.0299 24.5523 92.0585 25.4876L92.1157 27.2165L92.4591 27.3582C93.1745 27.67 95.3494 28.1234 96.6944 28.2651C96.8661 28.2935 97.7818 28.2935 98.7547 28.2651C100.414 28.2368 100.558 28.2368 101.387 28.0101C103.877 27.3582 105.48 25.9977 106.195 23.9287C106.424 23.2768 106.453 23.1068 106.481 22.1431C106.453 20.8394 106.338 20.1875 105.937 19.3656Z" fill="#9CA2AE"/>
<path d="M86.7357 9.04866C84.6467 7.99998 81.4131 8.08501 79.0665 9.21871C76.8344 10.2957 75.2892 12.1097 74.4307 14.6605C73.9728 15.9926 73.8297 17.0413 73.8869 18.7702C73.9156 19.8472 73.9728 20.4141 74.0873 20.9242C74.9744 24.8355 77.6643 27.4714 81.4417 28.1516C82.2716 28.2933 84.1602 28.2933 84.9901 28.1516C86.192 27.9532 87.5656 27.4147 88.4527 26.8195C89.5115 26.1109 90.5989 25.0339 90.5989 24.6938C90.5989 24.4954 90.2269 24.0136 90.0838 24.0136C90.0266 24.0136 89.7118 24.1553 89.4256 24.3537C88.3955 25.0339 87.3939 25.289 85.9917 25.289C84.0744 25.289 82.8725 24.8072 81.642 23.5884C81.0983 23.0499 80.8693 22.7665 80.6118 22.228C80.0109 21.066 79.6675 19.7055 79.6102 18.175L79.5816 17.5231L85.219 17.4948L90.8565 17.4664L90.8851 17.098C90.8851 16.8996 90.8851 16.3611 90.8278 15.8792C90.4844 12.5631 89.0822 10.2391 86.7357 9.04866ZM81.0697 15.9359L79.6388 15.9643V15.6525C79.6388 15.4824 79.6961 15.029 79.7533 14.6605C80.2398 11.6278 81.3844 9.81391 82.8153 9.81391C84.1316 9.81391 84.9329 11.5995 85.1046 14.8872L85.1618 15.8226L83.8455 15.8792C83.1014 15.8792 81.8423 15.9076 81.0697 15.9359Z" fill="#9CA2AE"/>
<path d="M66.3341 8.70834C65.8762 8.62331 65.4756 8.59497 64.6171 8.62331C63.3008 8.68 62.4137 8.85005 61.4121 9.30354C61.0973 9.44525 60.8111 9.58696 60.7825 9.58696C60.7539 9.58696 60.7539 7.63132 60.7825 5.22219C60.8111 1.82107 60.8111 0.857422 60.7253 0.857422C60.4677 0.857422 52.7127 2.33124 52.6269 2.38793C52.5696 2.44461 52.541 2.61467 52.541 2.84141C52.5696 3.26655 52.5124 3.23821 53.4567 3.43661C53.7429 3.49329 54.0863 3.635 54.2008 3.72003C54.5155 3.94677 54.7731 4.4286 54.9734 5.10882C55.1165 5.64733 55.1451 6.04413 55.2023 9.72868C55.2596 13.4983 55.2596 17.3812 55.1451 24.4669L55.0879 27.4145L55.6316 27.5279C56.4328 27.6979 58.7508 28.0947 59.4948 28.1798C60.6108 28.2931 63.1863 28.2648 64.0162 28.1514C67.5932 27.6129 70.2832 25.5722 71.5423 22.4262C71.8857 21.6042 72.2005 20.3005 72.3149 19.3652C72.458 18.2598 72.3722 16.0207 72.1718 15.1138C71.4278 11.6843 69.253 9.30353 66.3341 8.70834ZM60.897 26.4792C60.8111 26.2241 60.6967 17.3812 60.7253 13.8667L60.7539 11.1175L61.269 10.9758C61.6124 10.8907 62.013 10.834 62.4709 10.834C63.1291 10.834 63.1863 10.8624 63.73 11.1175C65.0464 11.7693 65.9335 13.3565 66.3627 15.7657C66.5058 16.6726 66.5344 19.1101 66.3913 20.1871C66.0479 22.823 65.1894 24.9487 64.0162 25.969C63.5583 26.3658 63.1291 26.5926 62.5854 26.7059C62.1847 26.791 62.0703 26.791 61.3262 26.7343C61.0401 26.6776 60.9828 26.6492 60.897 26.4792Z" fill="#9CA2AE"/>
</svg>
