<svg width="304" height="38" viewBox="0 0 304 38" fill="none" xmlns="http://www.w3.org/2000/svg">
<g clip-path="url(#clip0_1806_10164)">
<path d="M261.023 7L255.746 21.8668H255.696L250.672 7H242.655V7.20296C243.822 7.30444 244.99 8.01481 244.99 10.1459L244.837 25.2156C244.736 27.6004 243.822 29.9345 241.691 30.2389V30.4419H248.947V30.2389C246.613 30.0359 245.446 28.3108 245.446 25.4693L245.497 9.23255H245.598L253.006 30.3404H253.26L260.973 8.87738H261.023C260.922 11.4144 260.871 16.2854 260.871 17.9598V26.4841C260.871 29.2241 259.4 30.0867 258.486 30.2389V30.4419H268.634V30.2389C267.823 30.0867 266.402 29.2241 266.402 26.4841V10.6533C266.402 7.91333 267.823 7.35518 268.634 7.2537V7.05074H261.023V7Z" fill="#9CA2AE"/>
<path d="M239.053 10.6025C239.053 7.86258 240.626 7.2537 241.59 7.20296V7H231.138V7.20296C232.051 7.35518 233.522 7.86258 233.522 10.6025V26.4334C233.522 29.1734 232 30.0359 231.138 30.1882V30.3911H241.286V30.1882C240.474 30.0867 239.104 29.1734 239.104 26.4334V10.6025H239.053Z" fill="#9CA2AE"/>
<path d="M277.311 29.9852V18.4672H279.442C282.284 18.4672 283.451 19.3806 284.212 21.3594H284.415V15.1691H284.212C283.451 17.0465 282.182 18.0613 279.442 18.0613H277.311V7.40593H279.493C282.131 7.40593 285.785 7.81184 287.155 11.7696H287.408L287.307 8.72516V7H269.7V7.20296C270.461 7.35518 271.73 7.71036 271.73 10.5011V26.5856C271.73 29.3256 270.411 30.0359 269.7 30.1882V30.3911H287.814V28.666L287.916 25.3679H287.662C285.937 29.3256 283.603 29.9852 280.254 29.9852H277.311Z" fill="#9CA2AE"/>
<path d="M210.435 7V8.72516L210.334 11.8203H210.537C212.059 8.36998 214.799 7.40593 216.778 7.40593H217.59V26.4841C217.59 29.2241 215.966 30.0867 215.002 30.2389V30.4419H225.657V30.2389C224.592 30.0867 223.171 29.2241 223.171 26.4841V7.40593H223.983C225.962 7.40593 228.702 8.36998 230.224 11.8203H230.427L230.326 8.72516V7H210.435Z" fill="#9CA2AE"/>
<path d="M294.816 30.6956C291.518 30.6956 289.691 27.8034 288.829 25.7738H288.575L288.626 28.1586V30.3911C290.678 30.8187 292.771 31.0229 294.867 31C299.535 31 304 28.8182 304 23.8457C304 20.4968 302.173 18.1628 297.759 16.4884C294.765 15.3721 292.939 14.0021 292.939 11.3636C292.939 8.82664 295.019 7.30444 297.353 7.30444C300.347 7.30444 301.92 9.48625 302.884 12.1755H303.087L303.036 9.84144V7.55814C301.176 7.22504 299.293 7.03841 297.404 7C291.721 7 288.524 9.73995 288.524 13.7992C288.524 17.8583 291.315 19.5328 294.36 20.8013C297.607 22.1205 299.332 23.5412 299.332 26.3319C299.434 29.2748 297.607 30.6956 294.816 30.6956Z" fill="#9CA2AE"/>
<path d="M41.8771 10.6025C41.8771 7.86258 43.3486 7.30444 44.2619 7.20296V7H33.9109V7.20296C34.8243 7.35518 36.2957 7.86258 36.2957 10.6025V18.0613H28.431V10.6025C28.431 7.86258 29.9025 7.30444 30.8158 7.20296V7H20.4648V7.20296C21.3782 7.35518 22.8496 7.86258 22.8496 10.6025V26.4334C22.8496 29.1734 21.3274 30.0359 20.4648 30.1882V30.3911H30.8158V30.1882C29.9025 30.0359 28.431 29.1734 28.431 26.4334V18.518H36.3464V26.4334C36.3464 29.1734 34.8243 30.0359 33.9617 30.1882V30.3911H44.3126V30.1882C43.3993 30.0359 41.9278 29.1734 41.9278 26.4334V10.6025H41.8771Z" fill="#9CA2AE"/>
<path d="M52.9391 29.9852V18.4672H55.0702C57.9116 18.4672 59.0787 19.3806 59.8398 21.3594H60.0427V15.1691H59.8398C59.0787 17.0465 57.8102 18.0613 55.0702 18.0613H52.9391V7.40593H55.1209C57.7594 7.40593 61.4127 7.81184 62.7827 11.7696H63.0364L62.9349 8.72516V7H45.3281V7.20296C46.0892 7.35518 47.3577 7.71036 47.3577 10.5011V26.5856C47.3577 29.3256 46.0385 30.0359 45.3281 30.1882V30.3911H63.4423V28.666L63.5438 25.3679H63.2901C61.5649 29.3256 59.2309 29.9852 55.882 29.9852H52.9391Z" fill="#9CA2AE"/>
<path d="M-0.287193 7V8.72516L-0.388672 11.8203H-0.185712C1.33649 8.36998 4.07645 7.40593 6.0553 7.40593H6.86714V26.4841C6.86714 29.2241 5.24346 30.0867 4.2794 30.2389V30.4419H14.9348V30.2389C13.8693 30.0867 12.4485 29.2241 12.4485 26.4841V7.40593H13.2604C15.2392 7.40593 17.9792 8.36998 19.5014 11.8203H19.7044L19.6029 8.72516V7H-0.287193Z" fill="#9CA2AE"/>
<path d="M79.8816 30.6956C76.5835 30.6956 74.7569 27.8034 73.8943 25.7738H73.6406L73.6913 28.1586V30.3911C75.7436 30.8187 77.8361 31.0229 79.9323 31C84.6004 31 89.0655 28.8182 89.0655 23.8457C89.0655 20.4968 87.2389 18.1628 82.8245 16.4884C79.8309 15.3721 78.0042 14.0021 78.0042 11.3636C78.0042 8.82664 80.0846 7.30444 82.4186 7.30444C85.4122 7.30444 86.9852 9.48625 87.9493 12.1755H88.1522L88.1015 9.84144V7.55814C86.2416 7.22504 84.3584 7.03841 82.4693 7C76.7865 7 73.5898 9.73995 73.5898 13.7992C73.5898 17.8583 76.3805 19.5328 79.4249 20.8013C82.6723 22.1205 84.3975 23.5412 84.3975 26.3319C84.4989 29.2748 82.6723 30.6956 79.8816 30.6956Z" fill="#9CA2AE"/>
<path d="M193.539 30.6956C190.241 30.6956 188.414 27.8034 187.552 25.7738H187.298L187.349 28.1586V30.3911C189.401 30.8187 191.493 31.0229 193.59 31C198.258 31 202.723 28.8182 202.723 23.8457C202.723 20.4968 200.896 18.1628 196.482 16.4884C193.488 15.3721 191.661 14.0021 191.661 11.3636C191.661 8.82664 193.742 7.30444 196.076 7.30444C199.069 7.30444 200.642 9.48625 201.606 12.1755H201.809L201.759 9.84144V7.55814C199.899 7.22504 198.016 7.03841 196.127 7C190.444 7 187.247 9.73995 187.247 13.7992C187.247 17.8583 190.038 19.5328 193.082 20.8013C196.33 22.1205 198.055 23.5412 198.055 26.3319C198.156 29.2748 196.38 30.6956 193.539 30.6956Z" fill="#9CA2AE"/>
<path d="M88.9638 7V8.72516L88.8623 11.8203H89.0653C90.5875 8.36998 93.3274 7.40593 95.3063 7.40593H96.1181V26.4841C96.1181 29.2241 94.4944 30.0867 93.5304 30.2389V30.4419H104.084V30.2389C103.019 30.0867 101.649 29.2241 101.649 26.4841V7.40593H102.461C104.439 7.40593 107.179 8.36998 108.702 11.8203H108.905L108.803 8.72516V7H88.9638Z" fill="#9CA2AE"/>
<path d="M166.9 7V8.72516L166.799 11.8203H167.002C168.524 8.36998 171.264 7.40593 173.243 7.40593H174.055V26.4841C174.055 29.2241 172.431 30.0867 171.467 30.2389V30.4419H182.122V30.2389C181.057 30.0867 179.636 29.2241 179.636 26.4841V7.40593H180.448C182.427 7.40593 185.167 8.36998 186.689 11.8203H186.892L186.79 8.72516V7H166.9Z" fill="#9CA2AE"/>
<path d="M163.805 10.6025C163.805 7.86258 165.276 7.30444 166.19 7.20296V7H155.839V7.20296C156.752 7.35518 158.224 7.86258 158.224 10.6025V26.4334C158.224 29.1734 156.701 30.0359 155.839 30.1882V30.3911H166.19V30.1882C165.276 30.0359 163.805 29.1734 163.805 26.4334V10.6025Z" fill="#9CA2AE"/>
<path d="M152.846 27.1945L146.503 7H139.704V7.20296C140.062 7.34012 140.375 7.57405 140.608 7.87866C140.841 8.18327 140.985 8.5466 141.023 8.92813C141.029 9.38585 140.924 9.83815 140.719 10.2474L135.645 23.7949C134.021 28.2093 132.601 30.0359 131.434 30.1882V30.3911H137.878V30.1882C136.558 30.1374 135.544 28.9197 135.544 27.3467C135.544 26.129 135.899 25.0127 136.457 23.3383L136.964 21.9175H145.235L145.59 22.9323C146.199 24.8605 146.859 26.9915 146.859 28.0571C146.859 28.8689 146.554 30.0867 145.438 30.1882V30.3911H155.434V30.1882C154.419 30.1374 153.455 29.0212 152.846 27.1945ZM137.167 21.4609L141.429 9.68923H141.48L145.083 21.4609H137.167Z" fill="#9CA2AE"/>
<path d="M131.129 30.3911V30.1882C130.063 30.0359 129.658 28.0571 128.846 25.5201C127.526 21.2579 126.207 18.4672 121.844 18.2135L121.996 18.0613C125.751 17.9091 128.795 16.1332 128.795 12.4292C128.795 7.91333 123.975 7 118.85 7H109.615V7.20296C110.529 7.35518 112 7.86258 112 10.6025V26.4334C112 29.1734 110.478 30.0359 109.615 30.1882V30.3911H119.56V30.1882C118.647 30.0359 117.531 29.0719 117.531 26.2812V18.7209H117.987C120.626 18.7209 122.148 21.8668 123.417 26.5856C124.228 29.5793 124.279 30.0867 124.279 30.2896V30.4419H131.129V30.3911ZM118.393 18.315C118.122 18.3234 117.85 18.3064 117.581 18.2643V7.40593C118.038 7.35519 118.495 7.30444 118.799 7.30444C121.894 7.30444 123.569 8.97886 123.569 12.4292C123.569 16.2854 121.59 18.315 118.393 18.315Z" fill="#9CA2AE"/>
</g>
<defs>
<clipPath id="clip0_1806_10164">
<rect width="304" height="38" fill="white"/>
</clipPath>
</defs>
</svg>
