<svg width="132" height="48" viewBox="0 0 132 48" fill="none" xmlns="http://www.w3.org/2000/svg">
<g clip-path="url(#clip0_1801_10135)">
<path fill-rule="evenodd" clip-rule="evenodd" d="M47.3186 14.4444V28.8889H50.8983H54.478V23.3333C54.478 19.6667 54.478 17.6667 54.478 17.4444C54.5898 16.8889 54.7017 16.3333 55.0373 15.8889C55.4847 15.1111 56.2678 14.7778 57.1627 14.8889C58.3932 15 59.1763 15.6667 59.4 17.1111C59.4 17.3333 59.4 19.5556 59.4 23.1111V28.7778H62.9797H66.5593V22.1111C66.5593 16.4444 66.5593 15.3333 66.4475 14.7778C66.2237 12.7778 65.5525 11.2222 64.322 10.1111C63.3153 9.11111 62.0848 8.55555 60.6305 8.33333C60.0712 8.22222 58.5051 8.33333 58.0576 8.44444C56.7153 8.77778 55.7085 9.22222 54.8136 10.2222L54.2542 10.6667V5.33333V0H50.6746H47.0949V14.4444H47.3186ZM123.386 0.222222C123.163 0.666667 115.892 18.1111 115.892 18.1111C115.892 18.1111 117.793 18.1111 120.142 18.1111H124.393L128.197 9.11111C130.322 4.11111 132 0 132 0C132 0 130.098 0 127.749 0H123.498L123.386 0.222222ZM31.6576 8.44444C30.0915 8.66667 28.861 9.11111 27.6305 9.88889C25.1695 11.4444 23.6034 14.1111 23.1559 17.2222C22.9322 18.6667 23.0441 20.4444 23.3797 21.7778C24.2746 25.2222 26.6237 27.8889 29.6441 28.8889C30.7627 29.2222 31.2102 29.3333 32.5525 29.3333C33.5593 29.3333 33.8949 29.3333 34.2305 29.2222C35.6847 28.8889 36.6915 28.3333 37.5864 27.4444L38.0339 27V27.8889V28.8889H41.5017H44.9695V18.8889V8.88889H41.5017H38.0339V9.77778V10.6667L37.6983 10.3333C36.9153 9.55555 35.7966 8.88889 34.3424 8.55555C33.8949 8.44444 33.6712 8.44444 32.7763 8.44444C32.217 8.44444 31.6576 8.44444 31.6576 8.44444ZM77.2983 8.44444C75.3966 8.66667 73.3831 9.55556 71.9288 10.6667C69.1322 13 67.678 16.6667 68.2373 20.4444C68.7966 24.6667 71.817 27.8889 76.0678 29C76.9627 29.2222 77.8576 29.3333 78.9763 29.3333C80.9898 29.3333 82.4441 29 84.0102 28.2222C87.1424 26.6667 89.1559 23.8889 89.6034 20.4444C89.7153 19.5556 89.7153 18.1111 89.6034 17.3333C89.3797 15.6667 88.7085 14 87.7017 12.6667C87.2542 12.1111 86.3593 11.1111 85.8 10.6667C84.2339 9.44444 82.4441 8.66667 80.4305 8.44444C79.6475 8.33333 78.0814 8.33333 77.2983 8.44444ZM100.119 8.44444C98.217 8.66667 96.3153 9.44444 94.861 10.6667C94.3017 11.1111 93.2949 12.1111 92.9593 12.6667C91.9525 14 91.3932 15.6667 91.0576 17.3333C90.9458 18.1111 90.9458 19.6667 91.0576 20.4444C91.7288 24.8889 94.9729 28.3333 99.4475 29.2222C100.342 29.4444 100.79 29.4444 101.797 29.4444C103.698 29.4444 105.376 29.1111 106.942 28.2222C111.081 26.1111 113.319 21.4444 112.312 16.6667C111.417 12.2222 107.837 9 103.251 8.44444C102.468 8.33333 100.902 8.33333 100.119 8.44444ZM0 8.88889C0 8.88889 1.9017 13.4444 4.25085 19C6.6 24.5556 8.5017 29.1111 8.5017 29.1111C8.5017 29.1111 7.83051 30.7778 6.93559 32.7778C6.04068 34.7778 5.36949 36.3333 5.36949 36.4444C5.36949 36.5556 7.04746 36.4444 9.17288 36.4444H12.9763L18.6814 22.7778C21.8136 15.2222 24.3864 9.11111 24.3864 9C24.3864 9 23.6034 8.88889 20.5831 9H16.7797L14.4305 14.7778C13.4237 17.8889 12.3051 20.5556 12.3051 20.5556C12.3051 20.5556 11.2983 17.8889 9.95593 14.7778L7.71864 8.88889H3.91525C1.78983 8.88889 0 8.88889 0 8.88889ZM35.1254 15C36.5797 15.3333 37.6983 16.4444 38.1458 17.8889C38.2576 18.4444 38.2576 19.4444 38.1458 20C37.8102 21.4444 36.6915 22.5556 35.2373 22.8889C34.678 23 33.6712 23 33.1119 22.8889C31.8814 22.5556 30.7627 21.6667 30.3153 20.5556C29.7559 19.3333 29.9797 17.7778 30.6509 16.6667C31.6576 15.1111 33.3356 14.5556 35.1254 15ZM79.6475 15C81.2136 15.2222 82.4441 16.4444 82.7797 18C82.8915 18.5556 82.8915 19.4444 82.7797 20C82.4441 21.4444 81.3254 22.4444 79.9831 22.8889C79.5356 23 78.3051 23 77.8576 22.8889C76.739 22.5556 75.8441 21.7778 75.2848 20.7778C75.061 20.1111 74.9492 19.6667 74.9492 18.8889C74.9492 18.2222 75.061 17.8889 75.2848 17.3333C75.6204 16.6667 76.0678 16 76.739 15.5556C77.522 15 78.6407 14.7778 79.6475 15ZM102.468 15C103.81 15.2222 104.929 16.1111 105.376 17.3333C105.6 17.8889 105.712 18.2222 105.712 18.8889C105.712 19.6667 105.6 20 105.376 20.6667C104.929 21.6667 103.922 22.4444 102.803 22.7778C102.356 22.8889 101.125 22.8889 100.678 22.7778C99.3356 22.4444 98.217 21.3333 97.8814 19.8889C97.7695 19.3333 97.7695 18.3333 97.8814 17.7778C98.3288 16 99.8949 14.7778 101.685 14.7778C101.908 14.8889 102.244 14.8889 102.468 15ZM117.569 19.8889C115.444 20.1111 113.878 21.6667 113.431 23.6667C113.319 24.2222 113.319 25.2222 113.431 25.7778C113.878 27.5556 115.22 28.7778 117.01 29.2222C117.234 29.2222 117.681 29.3333 118.017 29.3333C119.359 29.3333 120.478 28.8889 121.373 28C122.38 27 122.715 26 122.715 24.6667C122.715 23 121.932 21.5556 120.59 20.7778C119.807 20.1111 118.576 19.7778 117.569 19.8889Z" fill="#9CA2AE"/>
<path fill-rule="evenodd" clip-rule="evenodd" d="M57.2743 34.1114C56.4912 32.8892 57.1624 31.2225 58.6167 30.7781C58.7172 30.7781 58.8178 30.7557 58.9285 30.7309C59.0641 30.7007 59.215 30.667 59.3997 30.667C59.8472 30.667 59.959 30.667 60.2946 30.8892C61.4133 31.4448 61.9726 32.7781 61.4133 33.8892C61.1896 34.3337 60.7421 34.7781 60.2946 35.0003C59.959 35.1114 59.8472 35.1114 59.2879 35.1114C58.6167 35.1114 58.6167 35.1114 58.2811 35.0003C57.9455 34.8892 57.498 34.4448 57.2743 34.1114ZM48.9963 34.4448C49.5556 32.4448 50.7862 31.2225 52.6879 30.8892C52.7925 30.8892 52.8971 30.8784 53.0085 30.8669C53.2544 30.8415 53.5334 30.8127 53.9184 30.8892C54.7014 30.8892 55.2607 30.8892 55.7082 31.1114L56.1557 31.2226V33.0003V34.7781C56.1557 34.7781 56.0438 34.7781 55.8201 34.667C55.3726 34.4448 54.7014 34.4448 54.254 34.5559C53.5828 34.667 53.2472 35.2226 53.1353 36.0003V36.3337H54.5895H56.0438V38.0003V39.667H54.5895H53.1353V43.667V47.667H51.0099H48.8845V43.667V39.667H48.1014H47.3184V38.0003V36.3337H48.1014H48.8845V35.5559V35.5559C48.8845 35.1114 48.8845 34.7781 48.9963 34.4448ZM69.6912 36.1114C68.7963 36.3337 68.1251 36.7781 67.6777 37.3337L67.454 37.667V37.0003V36.3337H65.3285H63.2031V42.0003V47.667H65.3285H67.454V44.5559V41.1114C67.5658 40.667 67.7896 40.2226 68.0133 40.0003C68.5726 39.5559 69.5794 39.667 70.0268 40.2226C70.3624 40.667 70.3624 40.667 70.3624 44.2226V47.5559H72.4879H74.6133V43.7781V43.7779C74.6133 39.7781 74.6133 39.3337 74.3895 38.5559C74.1658 37.8892 73.9421 37.3337 73.3828 36.8892C72.9353 36.4448 72.4879 36.1114 71.8167 36.0003H71.8166C71.1454 36.0003 70.1387 36.0003 69.6912 36.1114ZM78.0811 36.8892C78.6404 36.4448 79.6472 36.1114 80.3184 36.0003C80.654 36.0003 81.437 36.0003 81.8845 35.8892C82.7794 36.0003 83.5624 36.4448 84.1217 37.0003L84.3455 37.3337V36.7781V36.2225H86.4709H88.5963V41.8892V47.5559H86.4709H84.3455V47.0003V46.4448L83.898 46.8892C83.3387 47.3337 82.8912 47.5559 82.2201 47.7781C81.6607 48.0003 80.5421 48.0003 79.8709 47.8892C78.6404 47.667 77.6336 47.0003 76.8506 46.0003C76.2912 45.3337 75.9556 44.3337 75.7319 43.3337C75.6201 42.667 75.6201 41.4448 75.7319 40.7781C76.0675 39.1114 76.8506 37.7781 78.0811 36.8892ZM96.5387 36.1114C95.7557 36.2226 94.9726 36.7781 94.5251 37.3337L94.3014 37.5559V36.8892V36.2225H92.176H90.0506V41.8892V47.5559H92.176H94.3014V44.3337C94.3014 40.8892 94.3014 40.8892 94.5251 40.3337C94.7489 39.8892 95.1963 39.667 95.6438 39.667C96.0912 39.667 96.315 39.7781 96.6506 40.0003L96.6878 40.0372C97.098 40.4416 97.098 40.4416 97.098 44.1114V47.4448H99.2234H101.349V43.3337V43.3328C101.349 39.2226 101.349 39.2225 101.237 38.7781C101.162 38.63 101.088 38.383 101.013 38.1361C100.976 38.0127 100.939 37.8892 100.901 37.7781C100.678 37.3337 100.566 37.2226 100.23 36.8892C99.7828 36.4448 99.4472 36.2226 98.9997 36.0003H98.9997C98.2166 36.0003 97.3217 36.0003 96.5387 36.1114ZM103.362 38.8892C104.257 37.3337 105.712 36.4448 107.613 36.1114C108.732 35.8892 110.074 36.1114 111.305 36.4448L111.64 36.5559V38.4448V40.3337C110.522 39.7781 110.186 39.7781 109.403 39.7781C108.284 39.8892 107.501 40.3337 107.166 41.2226C107.054 41.5559 107.054 41.667 107.054 42.1114C107.054 42.667 107.054 42.667 107.166 43.0003L107.166 43.0003C107.39 43.4448 107.725 43.7781 108.173 44.0003C108.62 44.2226 108.956 44.2226 109.627 44.2226C110.298 44.2226 110.634 44.1114 111.193 43.7781L111.529 43.5559V45.4448V47.3337L111.081 47.5559C110.298 47.8892 109.851 48.0003 108.732 48.0003C107.949 48.0003 107.613 48.0003 107.278 47.8892C105.152 47.4448 103.586 46.0003 102.915 44.1114C102.579 43.3337 102.579 43.0003 102.579 42.0003C102.579 41.1114 102.579 41.0003 102.691 40.4448L102.691 40.4446C102.915 39.8891 103.139 39.3336 103.362 38.8892ZM117.234 36.1114C113.99 36.667 111.976 39.4448 112.2 42.667C112.312 43.7781 112.647 44.7781 113.207 45.5559C113.99 46.7781 115.22 47.5559 116.786 47.8892C117.457 48.0003 119.247 48.0003 120.03 47.8892C121.149 47.667 122.156 47.1114 122.939 46.3337C123.274 46.0003 123.834 45.2226 123.834 45.2226C123.834 45.2226 123.051 44.8892 122.044 44.5559L120.254 43.8892L120.03 44.1114C119.695 44.4448 119.471 44.5559 119.023 44.667C117.793 45.0003 116.562 44.3337 116.339 43.2226V43.0003H120.254H124.169V42.0003C124.169 41.3337 124.169 40.8892 124.057 40.667C123.834 39.3337 123.274 38.4448 122.491 37.5559C121.708 36.7781 120.813 36.3337 119.583 36.1114C119.023 36.0003 117.681 36.0003 117.234 36.1114ZM57.2743 47.667V42.0003V36.3337H59.3997H61.5251V42.0003V47.667H59.3997H57.2743ZM119.502 39.5355L119.502 39.5354C119.3 39.3958 119.174 39.309 118.912 39.2222C117.793 39 116.675 39.4445 116.451 40.2222C116.44 40.2445 116.429 40.2656 116.418 40.2856C116.361 40.3963 116.321 40.4749 116.341 40.5306C116.392 40.6667 116.808 40.6667 118.241 40.6667H118.241H120.142V40.4445C120.142 40.1111 119.919 39.8889 119.695 39.6667C119.622 39.618 119.559 39.5747 119.502 39.5355ZM82.6688 39.8895C83.2281 40.0006 83.8993 40.5562 84.123 41.1117C84.6823 42.334 84.123 43.7784 82.7806 44.2228C82.3332 44.334 81.662 44.334 81.2145 44.2228C80.5434 44.0006 79.8722 43.4451 79.7603 42.7784C79.6484 42.4451 79.6484 42.334 79.6484 42.0006C79.6484 41.5562 79.6484 41.4451 79.8722 41.1117C80.4315 40.0006 81.5501 39.5562 82.6688 39.8895Z" fill="#9CA2AE"/>
</g>
<defs>
<clipPath id="clip0_1801_10135">
<rect width="132" height="48" fill="white"/>
</clipPath>
</defs>
</svg>
